<?xml version="1.0" standalone="no"?>
<!DOCTYPE svg PUBLIC "-//W3C//DTD SVG 20010904//EN"
 "http://www.w3.org/TR/2001/REC-SVG-20010904/DTD/svg10.dtd">
<svg version="1.0" xmlns="http://www.w3.org/2000/svg"
 width="948.000000pt" height="180.000000pt" viewBox="0 0 948.000000 180.000000"
 preserveAspectRatio="xMidYMid meet">

<g transform="translate(0.000000,180.000000) scale(0.100000,-0.100000)"
fill="currentColor" stroke="none">
<path d="M1915 1739 c-10 -15 3 -25 16 -12 7 7 7 13 1 17 -6 3 -14 1 -17 -5z"/>
<path d="M2023 1628 c-18 -23 -11 -48 13 -48 24 0 38 32 21 49 -14 14 -22 14
-34 -1z"/>
<path d="M1879 1593 c-12 -15 -12 -16 1 -8 13 8 13 7 1 -8 -12 -15 -11 -17 7
-17 16 0 20 5 17 21 -6 30 -10 32 -26 12z"/>
<path d="M2126 1505 c-3 -8 -12 -15 -21 -15 -13 0 -13 -3 -3 -20 9 -15 10 -22
1 -31 -14 -14 -96 -14 -101 0 -2 6 -9 11 -17 11 -7 0 -20 10 -28 23 -13 18
-16 19 -16 5 -1 -11 -9 -18 -21 -18 -23 0 -27 -15 -5 -24 9 -3 12 -12 8 -21
-4 -11 -1 -16 8 -15 8 1 19 2 25 1 18 -2 83 -153 101 -235 15 -67 15 -90 5
-173 -25 -198 -144 -375 -362 -540 -38 -28 -67 -53 -64 -55 2 -3 -2 -5 -8 -5
-7 0 -53 -23 -102 -51 -114 -66 -266 -129 -436 -182 -74 -23 -142 -44 -150
-47 -8 -3 -26 -7 -40 -9 -14 -2 -50 -10 -80 -18 -93 -23 -22 -17 105 9 322 67
629 189 849 339 103 70 259 213 249 229 -3 5 -2 7 4 4 9 -5 53 43 53 58 0 3 9
16 20 27 23 26 71 120 96 193 10 32 18 92 21 165 4 96 1 128 -17 190 -34 122
-39 159 -23 176 13 12 12 14 -2 14 -8 0 -18 7 -21 15 -4 8 -10 15 -14 15 -4 0
-10 -7 -14 -15z"/>
<path d="M1594 1281 c-2 -2 -4 -91 -4 -198 0 -177 -1 -193 -17 -193 -134 -4
-563 -1 -570 3 -6 4 -11 87 -11 194 l-2 188 -132 0 -133 0 -3 -528 -2 -528
137 3 138 3 1 160 c1 88 -2 172 -6 186 -6 19 -3 28 9 36 10 6 117 8 281 6 146
-2 275 -3 287 -3 21 0 22 -5 25 -80 l3 -80 30 20 c71 48 104 75 168 137 l67
66 0 306 0 306 -131 0 c-72 0 -133 -2 -135 -4z"/>
<path d="M2276 1162 c5 -129 -11 -213 -60 -325 -27 -59 -95 -166 -121 -187 -9
-7 -13 -22 -10 -34 3 -12 2 -15 -1 -8 -5 10 -12 8 -29 -8 -23 -21 -23 -28 -25
-201 l-1 -179 136 0 136 0 -1 190 c-1 104 1 194 5 200 4 6 96 10 261 10 152 0
253 4 250 9 -4 5 -3 11 2 13 16 7 92 140 86 150 -4 6 -3 8 3 5 6 -4 22 16 37
43 l27 50 -333 2 -333 3 0 55 0 55 275 -4 276 -3 37 60 c20 33 37 64 37 69 0
6 9 18 20 28 12 11 18 25 15 34 -3 8 -3 12 1 8 9 -8 55 53 49 64 -3 4 1 10 7
12 7 3 -159 6 -368 6 l-382 1 4 -118z"/>
<path d="M4331 1249 c-71 -12 -167 -56 -192 -87 -10 -14 -19 -21 -19 -17 0 4
-6 2 -14 -5 -8 -6 -12 -18 -9 -26 3 -9 0 -14 -8 -12 -8 2 -25 -20 -41 -51 -28
-54 -28 -55 -28 -267 0 -231 6 -260 65 -338 97 -128 330 -175 516 -106 63 24
143 85 133 102 -4 6 -2 8 4 4 12 -7 42 32 63 84 21 51 20 464 -1 500 -8 14
-13 28 -12 32 1 4 -20 31 -47 60 -53 58 -142 113 -167 104 -10 -4 -12 -2 -8 6
5 7 0 9 -14 6 -12 -3 -22 -2 -24 2 -5 13 -139 19 -197 9z m181 -159 c44 -13
93 -52 113 -91 19 -36 22 -382 3 -426 -6 -15 -11 -31 -10 -35 1 -5 -3 -8 -9
-8 -5 0 -7 -6 -3 -12 4 -7 4 -10 -1 -6 -4 4 -20 -1 -34 -10 -54 -37 -102 -48
-181 -41 -41 4 -79 5 -85 2 -5 -4 -7 -2 -2 2 9 11 -43 46 -57 38 -6 -3 -8 -2
-3 2 4 5 -3 19 -15 33 -22 23 -23 30 -25 253 -1 125 2 227 5 226 4 -1 7 2 7 6
0 11 59 47 103 63 45 16 143 18 194 4z"/>
<path d="M5073 1250 c-48 -11 -78 -34 -97 -73 -14 -32 -16 -81 -14 -454 l3
-418 35 3 c52 5 100 31 121 65 16 27 18 58 19 301 0 148 3 272 5 274 10 10 37
-24 97 -120 35 -55 68 -108 74 -119 6 -10 17 -27 26 -36 8 -10 33 -51 57 -91
23 -40 46 -70 51 -67 6 4 7 -2 3 -11 -5 -13 -3 -15 7 -9 8 5 11 4 6 -3 -9 -14
75 -143 87 -135 6 3 7 2 4 -4 -3 -5 0 -19 8 -31 13 -17 20 -19 48 -11 17 5 47
24 65 44 l32 35 0 386 c0 343 -2 389 -17 414 -18 31 -65 55 -125 66 l-38 6 0
-301 c0 -167 -4 -301 -9 -301 -11 0 -46 47 -105 143 -27 42 -52 77 -56 77 -4
0 -10 9 -13 20 -8 32 -220 360 -231 359 -6 -1 -26 -4 -43 -9z"/>
<path d="M6965 1246 c-30 -13 -46 -42 -140 -251 -57 -126 -65 -147 -58 -157 3
-6 2 -8 -4 -5 -10 6 -49 -74 -44 -89 2 -4 -2 -10 -7 -13 -5 -3 -34 -58 -63
-121 -46 -99 -54 -123 -54 -177 0 -52 4 -66 25 -87 13 -15 30 -24 38 -21 7 2
10 0 7 -5 -3 -6 5 -10 20 -10 23 0 31 11 76 107 27 59 48 112 45 119 -3 9 42
12 185 13 l189 2 18 -30 c9 -17 21 -31 25 -31 5 0 6 -4 3 -9 -3 -5 11 -45 32
-88 33 -70 40 -80 63 -79 36 2 78 32 90 64 20 52 3 113 -88 314 -50 109 -94
194 -98 190 -5 -4 -5 -2 -2 4 7 12 -135 331 -156 350 -20 20 -70 24 -102 10z
m109 -399 c26 -65 45 -124 42 -132 -8 -22 -214 -22 -223 0 -5 15 78 234 100
263 16 20 28 0 81 -131z"/>
<path d="M7705 1255 c-5 -2 -23 -6 -38 -9 -15 -4 -25 -11 -22 -16 3 -5 0 -7
-8 -4 -8 3 -25 -8 -40 -25 -35 -42 -39 -90 -35 -525 2 -304 5 -370 17 -374 8
-3 11 0 8 5 -4 6 3 8 18 5 33 -6 109 33 123 64 8 17 12 110 12 288 0 215 3
266 15 282 14 18 14 18 15 0 0 -12 5 -16 14 -13 9 4 13 1 10 -6 -2 -7 10 -35
28 -62 38 -60 167 -263 273 -432 70 -112 79 -123 106 -123 16 0 29 3 29 8 0 4
13 13 28 20 56 24 57 31 57 442 0 413 0 413 -59 449 -17 10 -50 21 -73 25
l-43 6 -1 -257 c-1 -142 0 -274 1 -294 1 -21 -3 -40 -8 -43 -13 -8 -42 3 -42
17 0 10 -17 39 -125 207 -34 52 -90 140 -124 195 -89 141 -113 175 -120 174
-3 0 -10 -2 -16 -4z"/>
<path d="M8847 1253 c-9 -3 -15 -8 -12 -13 3 -4 -3 -7 -12 -6 -13 1 -51 -74
-160 -313 -79 -172 -140 -318 -136 -324 4 -6 1 -7 -7 -2 -10 6 -12 4 -7 -8 3
-10 3 -17 -2 -17 -14 0 -51 -96 -51 -134 0 -52 15 -81 53 -105 56 -34 68 -29
101 47 16 37 40 91 55 119 l26 53 172 0 c168 0 203 -4 203 -21 0 -13 63 -144
72 -147 4 -2 4 -10 1 -18 -3 -7 2 -16 10 -20 9 -3 13 -12 10 -20 -4 -10 3 -14
27 -14 18 0 29 4 25 10 -3 5 0 7 8 4 8 -3 25 8 41 26 39 47 35 97 -18 222 -50
116 -87 196 -101 218 -5 8 -10 20 -11 25 -2 11 -78 181 -147 328 -22 49 -48
92 -56 96 -24 12 -64 19 -84 14z m52 -295 c7 -18 19 -48 27 -65 34 -76 65
-167 60 -178 -3 -9 -35 -13 -99 -14 -95 -2 -157 6 -140 18 5 3 20 33 33 66 42
106 89 205 97 205 4 0 14 -15 22 -32z"/>
<path d="M3386 1240 c-28 -3 -54 -13 -61 -23 -7 -11 -14 -77 -19 -179 -9 -230
-7 -710 3 -727 6 -9 16 -11 32 -5 13 4 37 8 52 9 16 2 42 15 58 31 l29 28 0
157 c0 87 3 164 6 173 5 14 28 16 148 16 161 0 178 6 196 68 23 86 33 81 -167
84 l-178 3 -3 99 c-2 64 1 103 9 112 9 11 55 14 231 14 142 0 217 3 213 10 -3
5 0 7 9 4 22 -8 56 52 56 99 l0 38 -282 -2 c-156 -2 -305 -5 -332 -9z"/>
<path d="M5913 1243 c-13 -2 -23 -8 -23 -13 0 -4 -7 -7 -16 -6 -24 2 -55 -45
-61 -92 l-6 -41 163 -3 163 -3 -2 -387 c-1 -248 2 -388 8 -392 14 -9 102 14
95 25 -3 5 2 6 10 3 21 -8 53 29 66 75 6 25 10 157 10 348 0 169 0 313 0 319
0 8 40 13 118 16 149 5 183 25 198 116 l6 41 -353 -1 c-195 0 -364 -3 -376 -5z"/>
<path d="M1835 410 c-3 -5 -41 -31 -85 -57 -43 -26 -77 -51 -74 -55 3 -4 -2
-5 -10 -2 -9 3 -16 1 -16 -5 0 -6 -3 -10 -7 -9 -23 6 -53 -15 -53 -38 l0 -24
135 0 135 0 0 100 c0 90 -8 118 -25 90z"/>
<path d="M728 63 c7 -3 16 -2 19 1 4 3 -2 6 -13 5 -11 0 -14 -3 -6 -6z"/>
</g>
</svg>
